<svg xmlns="http://www.w3.org/2000/svg" version="1.1" xmlns:xlink="http://www.w3.org/1999/xlink" xmlns:svgjs="http://svgjs.com/svgjs" width="1400" height="800" preserveAspectRatio="none" viewBox="0 0 1400 800"><g mask="url(&quot;#SvgjsMask1085&quot;)" fill="none"><rect width="1400" height="800" x="0" y="0" fill="#0e2a47"></rect><path d="M484.62333653908195 277.2473803295338L255.7717180936788 249.14793484679598 456.5238910563441 506.09899877493694z" fill="rgba(28, 83, 142, 0.4)" class="triangle-float2"></path><path d="M1008.6059925097711 615.3303237107002L846.3444504865352 772.0244734254256 1003.0386002012605 934.2860154486616 1165.3001422244965 777.5918657339362z" fill="rgba(28, 83, 142, 0.4)" class="triangle-float1"></path><path d="M71.48843339220235 528.5749126440508L127.60932326318311 772.7225164703525 290.35003897767655 626.1901178690975z" fill="rgba(28, 83, 142, 0.4)" class="triangle-float2"></path><path d="M-8.508742899154008 813.021486513301L154.55249011701702 784.2693916249601 125.80039522867611 621.2081586087891-37.26083778749491 649.96025349713z" fill="rgba(28, 83, 142, 0.4)" class="triangle-float2"></path><path d="M590.5828832636265 173.97267313843093L572.2861008202364 70.2064635097316 425.7851775988824 149.53474198916658z" fill="rgba(28, 83, 142, 0.4)" class="triangle-float1"></path><path d="M170.95903058451563 709.8842783020411L270.4685816809502 779.5616161036289 340.1459194825379 680.0520650071943 240.63636838610338 610.3747272056066z" fill="rgba(28, 83, 142, 0.4)" class="triangle-float1"></path><path d="M1104.018,691.876C1156.603,689.17,1198.101,654.013,1226.235,609.504C1257.017,560.805,1283.657,501.728,1256.235,451.06C1227.929,398.758,1163.448,381.461,1104.018,383.682C1048.742,385.748,999.11,414.52,970.31,461.746C940.168,511.173,928.8,573.256,957.884,623.313C986.856,673.177,1046.424,694.84,1104.018,691.876" fill="rgba(28, 83, 142, 0.4)" class="triangle-float2"></path><path d="M235.98,229.023C278.415,229.734,320.04,212.686,342.67,176.782C366.838,138.438,369.263,90.493,348.777,50.062C326.083,5.272,286.172,-32.408,235.98,-33.78C183.78,-35.207,134.801,-3.377,111.97,43.588C91.382,85.938,109.131,134.165,135.308,173.308C158.159,207.478,194.879,228.334,235.98,229.023" fill="rgba(28, 83, 142, 0.4)" class="triangle-float1"></path><path d="M679.9386344137126 800.7692453032764L792.9261496347569 612.7264419591256 604.883346290606 499.7389267380813 491.89583106956184 687.7817300822321z" fill="rgba(28, 83, 142, 0.4)" class="triangle-float3"></path><path d="M312.4644552386613 898.9400085325262L534.5811056370363 765.7668018367867 338.5218696909818 652.5719491862197z" fill="rgba(28, 83, 142, 0.4)" class="triangle-float3"></path><path d="M1106.1377075456628 61.30941546209014L945.3198855584626-35.319680607802965 848.6907894885695 125.49814137939721 1009.5086114757697 222.1272374492903z" fill="rgba(28, 83, 142, 0.4)" class="triangle-float3"></path><path d="M158.0387930272261 262.1190360409604L209.8361096506369 151.03933207823107 17.317895394837535 128.88320912447955z" fill="rgba(28, 83, 142, 0.4)" class="triangle-float1"></path><path d="M571.3027133836024 381.3291308003509L436.5979710438111 452.7883257036411 548.3895577651047 525.3866309760471z" fill="rgba(28, 83, 142, 0.4)" class="triangle-float3"></path><path d="M1349.149,211.491C1392.852,210.173,1434.801,191.186,1456.895,153.456C1479.215,115.341,1477.528,68.13,1455.526,29.831C1433.439,-8.617,1393.482,-34.926,1349.149,-34.103C1306.074,-33.303,1271.977,-3.035,1249.4,33.658C1225.397,72.668,1207.117,120.365,1229.524,160.313C1252.265,200.856,1302.685,212.892,1349.149,211.491" fill="rgba(28, 83, 142, 0.4)" class="triangle-float2"></path><path d="M121.64294342614802 238.02309711944136L2.5734744679100174 217.02793716347497-18.421685488056383 336.097406121713 100.64778347018162 357.09256607767935z" fill="rgba(28, 83, 142, 0.4)" class="triangle-float1"></path><path d="M1106.252,111.71C1142.583,110.059,1175.362,93.158,1195.611,62.948C1218.831,28.306,1235.784,-15.293,1215.978,-51.994C1195.474,-89.989,1149.367,-104.912,1106.252,-102.639C1067.009,-100.57,1035.105,-75.091,1014.888,-41.393C993.948,-6.489,980.763,36.812,1001.621,71.765C1022.125,106.125,1066.28,113.527,1106.252,111.71" fill="rgba(28, 83, 142, 0.4)" class="triangle-float2"></path></g><defs><mask id="SvgjsMask1085"><rect width="1400" height="800" fill="#ffffff"></rect></mask><style>
            @keyframes float1 {
                0%{transform: translate(0, 0)}
                50%{transform: translate(-10px, 0)}
                100%{transform: translate(0, 0)}
            }

            .triangle-float1 {
                animation: float1 5s infinite;
            }

            @keyframes float2 {
                0%{transform: translate(0, 0)}
                50%{transform: translate(-5px, -5px)}
                100%{transform: translate(0, 0)}
            }

            .triangle-float2 {
                animation: float2 4s infinite;
            }

            @keyframes float3 {
                0%{transform: translate(0, 0)}
                50%{transform: translate(0, -10px)}
                100%{transform: translate(0, 0)}
            }

            .triangle-float3 {
                animation: float3 6s infinite;
            }
        </style></defs></svg>