<svg xmlns="http://www.w3.org/2000/svg" version="1.1" xmlns:xlink="http://www.w3.org/1999/xlink" xmlns:svgjs="http://svgjs.com/svgjs" width="500" height="900" preserveAspectRatio="none" viewBox="0 0 500 900"><g mask="url(&quot;#SvgjsMask1608&quot;)" fill="none"><rect width="500" height="900" x="0" y="0" fill="url(#SvgjsLinearGradient1609)"></rect><path d="M15 900L915 0L1018.5 0L118.5 900z" fill="url(#SvgjsLinearGradient1610)"></path><path d="M183 900L1083 0L1327.5 0L427.5 900z" fill="url(#SvgjsLinearGradient1610)"></path><path d="M496 900L-404 0L-449 0L451 900z" fill="url(#SvgjsLinearGradient1611)"></path><path d="M323 900L-577 0L-800.5 0L99.5 900z" fill="url(#SvgjsLinearGradient1611)"></path><path d="M75.54069055572296 900L500 475.54069055572296L500 900z" fill="url(#SvgjsLinearGradient1610)"></path><path d="M0 900L424.45930944427704 900L 0 475.54069055572296z" fill="url(#SvgjsLinearGradient1611)"></path></g><defs><mask id="SvgjsMask1608"><rect width="500" height="900" fill="#ffffff"></rect></mask><linearGradient x1="120%" y1="88.89%" x2="-20%" y2="11.11%" gradientUnits="userSpaceOnUse" id="SvgjsLinearGradient1609"><stop stop-color="#0e2a47" offset="0"></stop><stop stop-color="rgba(63, 81, 181, 1)" offset="1"></stop></linearGradient><linearGradient x1="0%" y1="100%" x2="100%" y2="0%" id="SvgjsLinearGradient1610"><stop stop-color="rgba(40, 79, 146, 0.7)" offset="0"></stop><stop stop-opacity="0" stop-color="rgba(40, 79, 146, 0.7)" offset="0.66"></stop></linearGradient><linearGradient x1="100%" y1="100%" x2="0%" y2="0%" id="SvgjsLinearGradient1611"><stop stop-color="rgba(40, 79, 146, 0.7)" offset="0"></stop><stop stop-opacity="0" stop-color="rgba(40, 79, 146, 0.7)" offset="0.66"></stop></linearGradient></defs></svg>